PathFileType	4	(X/Y/Z)	56_1_15_p1_0-262.trc
DataRate	CameraRate	NumFrames	NumMarkers	Units	OrigDataRate	OrigDataStartFrame	OrigNumFrames
60.0	60.0	6	27	m	60.0	32	263
Frame#	Time	RHip			RKnee			RAnkle			RBigToe			RSmallToe			RHeel			LHip			LKnee			LAnkle			LBigToe			LSmallToe			LHeel			Neck			Head			Nose			RShoulder			RElbow			RWrist			RThumb			RIndex			RPinky			LShoulder			LElbow			LWrist			LThumb			LIndex			LPinky			
		X1	Y1	Z1	X2	Y2	Z2	X3	Y3	Z3	X4	Y4	Z4	X5	Y5	Z5	X6	Y6	Z6	X7	Y7	Z7	X8	Y8	Z8	X9	Y9	Z9	X10	Y10	Z10	X11	Y11	Z11	X12	Y12	Z12	X13	Y13	Z13	X14	Y14	Z14	X15	Y15	Z15	X16	Y16	Z16	X17	Y17	Z17	X18	Y18	Z18	X19	Y19	Z19	X20	Y20	Z20	X21	Y21	Z21	X22	Y22	Z22	X23	Y23	Z23	X24	Y24	Z24	X25	Y25	Z25	X26	Y26	Z26	X27	Y27	Z27	
32	0.5333333333333333	0.4809750841552287	0.7357099159416516	0.3085726253025298	0.488961568235475	0.859691952357576	0.6622379667853328	0.47984938575821984	1.0594550027591887	1.053563316685189	0.42675065429670905	0.8959357412933316	1.1499485653878534	0.504299331803771	0.9128693024895627	1.1612511659558344	0.47393975973116564	1.1157279686522164	1.0857543426398206	0.27210510881628835	0.8067875073330039	0.30861033258442777	0.29630993782096765	0.9382286624666466	0.653572544029477	0.3182884118681233	1.08716130466869	1.0099075586902762	0.24924161568662176	0.8870088905963173	1.1130753840341736	0.21865786477491206	0.9821644738339406	1.1165020992332322	0.3384977125859493	1.1358982593821898	1.0653895015204753	0.338178965138183	0.5684377096099198	-0.2162107520065334	0.2780579448899553	0.36783092328753	-0.42665263393060643	0.2767406020357644	0.3873907557642681	-0.2789125000646096	0.48856054853667213	0.4884476313034641	-0.12549502950620792	0.5681549161703934	0.565128588101978	0.11296004081332818	0.6568202316984728	0.6286541646837116	0.36711417978448185	0.6909133941712361	0.6926385708610365	0.48812404989625974	0.7080860206916193	0.721323085020926	0.497137623811017	0.6900483616306793	0.7024478564133931	0.47799850499487484	0.1723604666685683	0.6089132358239068	-0.14492199828778696	0.14606824296560877	0.7619173886154087	0.11812413189500388	0.1388681947745336	0.719703735507034	0.36594519587101276	0.15707105483280281	0.7354556795195951	0.475923514705121	0.12383668177209112	0.6984141491122955	0.5116006805502603	0.10786296513787869	0.7427408845972051	0.48534918279012373
33	0.55	0.48536277419691054	0.7354067600735831	0.3045518567855069	0.48891751740135264	0.8598290253759682	0.6623670677755973	0.47157943089669735	1.046040859713723	1.0501066298063004	0.4183819416285469	0.883616587354324	1.1459190614960515	0.49613807411827604	0.9003828296072215	1.1574367726425003	0.4741487647953343	1.1160496491579983	1.08596242937094	0.27234108428448267	0.8064942669158913	0.30772070988470335	0.29638445870553415	0.9385278824322792	0.6533332241143651	0.31823993233327874	1.0869775675230964	1.0099694483794217	0.24917987383529955	0.8871153184761511	1.1130574610454567	0.21864386422691767	0.9821365375213289	1.1164220531191829	0.34462307497912353	1.1352976153072245	1.0609018975610787	0.33388051464331686	0.5679018208013314	-0.21273214577314692	0.27788518406789076	0.36820524644372765	-0.4236168418787078	0.2730785068557373	0.38818503667948673	-0.2756202103481907	0.48528393597676456	0.5015763500752102	-0.13127225594098332	0.5765493616539894	0.5751664012169856	0.10842969061883778	0.6764568913029163	0.6308762277478848	0.3558689874391887	0.7249653505032291	0.713008769007219	0.48086123023672156	0.730864150998744	0.6960158338796665	0.48813693747733117	0.7037745803796581	0.6971415664964568	0.4658097367940165	0.17231487775221882	0.6089665913582483	-0.1448057212873359	0.14646154448158186	0.7610724111845825	0.1147618624578709	0.1305987957731956	0.7375939970072904	0.35743019033634404	0.13945844254412365	0.7113486779698295	0.46996652283805135	0.10718761592833487	0.6921082419587954	0.5032062666591577	0.09868918519661345	0.7612051642035554	0.4732006959804813
34	0.5666666666666667	0.48517835989843705	0.7349266426365608	0.30452749083231373	0.4891849766894422	0.8603824903933159	0.6617532065157772	0.4736966767683048	1.050115820689214	1.0552332474084383	0.41834882034336285	0.8836517550917162	1.1459532551915557	0.4962485730290398	0.9012370590536128	1.1533880719227143	0.47472276966253846	1.116751139439935	1.0864832907880144	0.2753046674141029	0.8029731660636116	0.3030465461460716	0.2970416303064875	0.9367915836558762	0.6493597634274962	0.31821854108511244	1.0869248557372486	1.0100200973930822	0.2564698395204287	0.9001550228078689	1.1169148793320263	0.21871134163774958	0.9822900689482021	1.11649636524088	0.3446358378313638	1.1357981384676554	1.0566014979016491	0.33370311700517363	0.5679060737907092	-0.21275814195351236	0.27083295785234546	0.3590260911386812	-0.42075718074577456	0.27236512504087196	0.3863685422894183	-0.2788134407662451	0.48540410682725404	0.500802261391442	-0.13164409531462382	0.5807102674534099	0.5609614603420051	0.11351356673509883	0.6999977269178289	0.6511654590817593	0.35207243990059256	0.7218156181992084	0.6874858065892455	0.4621356493307037	0.7437108705014199	0.6855115730623329	0.47160319274759593	0.741012632144993	0.7206451050633108	0.4696754870240428	0.17224656962722026	0.6092140697880761	-0.14102944878131843	0.14510248285129101	0.7591611195491291	0.11402601358707717	0.12321582503406991	0.7433367412597703	0.3605515060943117	0.12065059463570711	0.7044035914091367	0.4725383978980588	0.1043518699559207	0.7075676839540361	0.5075157782796564	0.09273040453939115	0.7740603817448265	0.47685115497101127
35	0.5833333333333334	0.47949826946422097	0.7181850748498451	0.3046024496601646	0.48912533623486776	0.8599469985807322	0.6620279820899854	0.4734576242770863	1.0499266702949166	1.0551013493255805	0.4132202567197644	0.8817798880706045	1.1446697068354137	0.4908743047362791	0.9061493380331784	1.1498785932700235	0.4742542172846394	1.1161850016729946	1.086129991056665	0.27112947972875456	0.8025868862390803	0.29961595652456513	0.296358257552087	0.9383714237415209	0.6532396512223734	0.3181571173285676	1.0867526195183852	1.0100330891865361	0.25601778809445064	0.899094867580704	1.1211327140304879	0.2185802278216821	0.98226571268244	1.116529052906724	0.33917180637151473	1.1323185467049102	1.0594380209829994	0.32625552084866305	0.557561870322493	-0.2106666873300094	0.2670858319827296	0.3721442286812825	-0.42112660552092124	0.2723276114495315	0.38672781261148875	-0.27559068610928306	0.4851866381752531	0.5003325299227251	-0.13528389600713145	0.5888134321766363	0.5588413693369964	0.1095489841500564	0.7109273782464037	0.6319302659428018	0.34862390325535625	0.7234264905543101	0.6178017941265267	0.4604913913629394	0.7602171093272396	0.6471431438776054	0.4709151585938164	0.7500539508754691	0.7106951366268042	0.4676741550995787	0.1721439513291609	0.6092133730963992	-0.14098255906058538	0.1447699070643053	0.7593199110753726	0.11790987255782756	0.11712549049430157	0.7756122287353919	0.36810793895868005	0.11512727520720661	0.719995531196626	0.4853127329260924	0.08239369305267633	0.7567434598188664	0.5124431368217603	0.08052060599751586	0.7783530896058263	0.4834081835970172
36	0.6	0.48396788911848476	0.7171500565354032	0.2887465077873534	0.4887695461088817	0.8595453977046783	0.6615886546708288	0.46503367176531474	1.036227620332774	1.0513484217221816	0.4100084564775355	0.871624055718105	1.1414250934726706	0.491191778585506	0.9093351302450503	1.1537770877475406	0.4654501695003886	1.102625063403789	1.0824856457278855	0.27530664257660026	0.8025715321489628	0.2922573547609033	0.29644005269221896	0.9381108536916952	0.6531192979598271	0.3181564297139397	1.0868273060421523	1.0099707487091563	0.2557255270903938	0.900231525215192	1.1168491192505623	0.2192463749361857	0.9800222161996457	1.1124830268344073	0.339135197467528	1.1323105471877424	1.0594133135447776	0.3262423245162967	0.5580710437526418	-0.20718133240498762	0.2633815283559647	0.3726220948739764	-0.42104378434268147	0.2687019858526257	0.38784857574946	-0.26872902413520144	0.4846023395580742	0.49769304327752195	-0.13914617870087556	0.5962770181374525	0.5416264508173343	0.10709268243842937	0.7226679976864441	0.6043062988985561	0.3332076191274554	0.7236501199631645	0.575817035857687	0.4401259861863176	0.7602257344683521	0.6180049053508877	0.45408424966817323	0.7844963272631289	0.7169862381877656	0.45709703111727545	0.172454264018486	0.627369191473672	-0.13648991428487428	0.14475632067774935	0.7591587386629002	0.11788473609890103	0.11087762570856682	0.7623622332873484	0.36425298110437654	0.10629955169170109	0.7715795775488162	0.4738279364429025	0.07209833902747895	0.7852870638729742	0.5113460068651534	0.07206260130303628	0.7916912865632585	0.4760360859428886
37	0.6166666666666667	0.48377349240843603	0.7187907720093275	0.29638382348210984	0.48842540827798503	0.8615169232586731	0.6660312371407965	0.46516202503599696	1.0365490089915679	1.0515270948154778	0.4098425828096127	0.8714869123498575	1.141245562098956	0.49136282474269966	0.9068107106203321	1.1493886853091777	0.4740307094240745	1.116416272998786	1.08622105553438	0.2747764234946503	0.8040596509838774	0.2961978755629239	0.2964335056140202	0.9381336254058923	0.6531701425149471	0.3182225111362327	1.086714997036879	1.0098342736388362	0.24760997145275992	0.8837932278018996	1.1083846804616617	0.21918701610047103	0.9797728874215255	1.112417915805607	0.3448035865016509	1.1355781169364307	1.0563813560905666	0.32273056636811703	0.5595308420117551	-0.20349167227964945	0.26308499750713077	0.3857984273833536	-0.4213433974603627	0.26177881734150366	0.37910249970573884	-0.26657686854274254	0.4843892669725853	0.4971044874169628	-0.14268472687685418	0.5954359205706723	0.5390825521082446	0.10338510656482608	0.7236774052461862	0.5770344970916926	0.32602881296253844	0.7589086315726431	0.5781949246384063	0.4216971249727375	0.8136957813735223	0.6325143770619838	0.4420491853276255	0.7830398304255853	0.6638779583979543	0.4450620149840607	0.1726224841985985	0.6264356650418976	-0.1395601025704848	0.14470075282334888	0.7592114395181456	0.11791532239766445	0.11017199420468514	0.778035754774436	0.3641310123253797	0.09358905262262618	0.7906554613038641	0.4733819281794978	0.06572115298469304	0.7947933752643216	0.4997085354753595	0.06657275085238946	0.7894112578257799	0.4705360451747523
